<?xml version="1.0" encoding="UTF-8"?>
<!DOCTYPE svg PUBLIC "-//W3C//DTD SVG 1.1//EN" "http://www.w3.org/Graphics/SVG/1.1/DTD/svg11.dtd">
<svg xmlns="http://www.w3.org/2000/svg" version="1.1" width="234px" height="214px" style="shape-rendering:geometricPrecision; text-rendering:geometricPrecision; image-rendering:optimizeQuality; fill-rule:evenodd; clip-rule:evenodd" xmlns:xlink="http://www.w3.org/1999/xlink">
<g><path style="opacity:1" fill="#fefefe" d="M -0.5,-0.5 C 77.5,-0.5 155.5,-0.5 233.5,-0.5C 233.5,70.8333 233.5,142.167 233.5,213.5C 155.5,213.5 77.5,213.5 -0.5,213.5C -0.5,142.167 -0.5,70.8333 -0.5,-0.5 Z"/></g>
<g><path style="opacity:1" fill="#f6f9e3" d="M 111.5,10.5 C 105.86,15.4729 100.527,20.8063 95.5,26.5C 93.1667,29.1667 90.8333,31.8333 88.5,34.5C 88.372,32.3453 88.872,30.3453 90,28.5C 93.1556,25.01 96.3222,21.51 99.5,18C 99.0426,17.586 98.7093,17.086 98.5,16.5C 102.514,13.6574 106.848,11.6574 111.5,10.5 Z"/></g>
<g><path style="opacity:1" fill="#80902c" d="M 121.5,21.5 C 122.421,25.299 124.088,28.6323 126.5,31.5C 127.338,31.8417 127.672,32.5084 127.5,33.5C 130.585,37.2458 133.251,41.2458 135.5,45.5C 133.852,44.1902 132.186,42.8569 130.5,41.5C 129.808,42.0253 129.308,42.6919 129,43.5C 127.691,41.3136 127.524,39.1469 128.5,37C 127.285,34.9045 126.451,35.0712 126,37.5C 124.438,36.0686 122.938,34.5686 121.5,33C 125.037,30.5842 124.37,29.0842 119.5,28.5C 119.5,26.5 119.5,24.5 119.5,22.5C 117.856,22.2865 116.356,22.6198 115,23.5C 114.73,20.6383 113.896,17.9716 112.5,15.5C 111.224,20.6817 110.557,20.6817 110.5,15.5C 106.037,19.6933 101.037,23.36 95.5,26.5C 100.527,20.8063 105.86,15.4729 111.5,10.5C 113.466,9.55879 115.466,8.55879 117.5,7.5C 118.235,12.4543 119.568,17.1209 121.5,21.5 Z"/></g>
<g><path style="opacity:1" fill="#ecf2ca" d="M 121.5,21.5 C 122.15,21.8039 122.817,22.1373 123.5,22.5C 124.38,25.6129 125.38,28.6129 126.5,31.5C 124.088,28.6323 122.421,25.299 121.5,21.5 Z"/></g>
<g><path style="opacity:1" fill="#80921e" d="M 135.5,45.5 C 138.167,48.5 140.833,51.5 143.5,54.5C 148.119,61.7837 153.119,68.7837 158.5,75.5C 162.027,81.2211 165.027,87.2211 167.5,93.5C 167.917,97.0678 168.584,100.568 169.5,104C 169.275,106.528 168.942,109.028 168.5,111.5C 169.5,111.5 170.5,111.5 171.5,111.5C 171.989,119.731 171.156,127.731 169,135.5C 167.939,138.562 166.106,141.062 163.5,143C 164.435,145.381 164.768,147.881 164.5,150.5C 163.075,153.688 161.408,156.688 159.5,159.5C 156.5,161.5 153.5,163.5 150.5,165.5C 148.115,162.788 145.782,160.122 143.5,157.5C 141.469,153.289 138.802,149.456 135.5,146C 136.624,145.751 137.624,145.251 138.5,144.5C 137.738,140.889 137.238,137.222 137,133.5C 136.667,133.167 136.333,132.833 136,132.5C 134.46,134.643 134.294,136.81 135.5,139C 135.612,140.662 134.946,141.829 133.5,142.5C 131.647,137.489 128.813,133.156 125,129.5C 124.994,126.736 123.828,124.736 121.5,123.5C 120.313,121.928 119.313,120.261 118.5,118.5C 114.26,107.54 111.593,96.207 110.5,84.5C 111.632,67.7559 111.632,51.0893 110.5,34.5C 110.895,30.815 111.062,27.1483 111,23.5C 108.528,31.9985 107.028,40.6651 106.5,49.5C 105.771,54.1304 105.437,58.7971 105.5,63.5C 104.833,68.5 104.167,73.5 103.5,78.5C 100.796,73.4782 98.1298,68.4782 95.5,63.5C 94.0222,58.2531 92.8555,52.9198 92,47.5C 91.5017,50.8168 91.335,54.1501 91.5,57.5C 91.5,59.5 91.5,61.5 91.5,63.5C 89.8333,63.5 88.1667,63.5 86.5,63.5C 85.719,61.6777 84.5523,61.0111 83,61.5C 82.5034,59.1902 82.3367,56.8568 82.5,54.5C 81.5,54.5 80.5,54.5 79.5,54.5C 81.3357,51.8174 82.3357,48.8174 82.5,45.5C 82.5,44.8333 82.5,44.1667 82.5,43.5C 84.7349,40.7089 86.7349,37.7089 88.5,34.5C 90.8333,31.8333 93.1667,29.1667 95.5,26.5C 101.037,23.36 106.037,19.6933 110.5,15.5C 110.557,20.6817 111.224,20.6817 112.5,15.5C 113.896,17.9716 114.73,20.6383 115,23.5C 116.356,22.6198 117.856,22.2865 119.5,22.5C 119.5,24.5 119.5,26.5 119.5,28.5C 124.37,29.0842 125.037,30.5842 121.5,33C 122.938,34.5686 124.438,36.0686 126,37.5C 126.451,35.0712 127.285,34.9045 128.5,37C 127.524,39.1469 127.691,41.3136 129,43.5C 129.308,42.6919 129.808,42.0253 130.5,41.5C 132.186,42.8569 133.852,44.1902 135.5,45.5 Z"/></g>
<g><path style="opacity:1" fill="#f5f9da" d="M 88.5,34.5 C 86.7349,37.7089 84.7349,40.7089 82.5,43.5C 82.7097,39.185 84.7097,36.185 88.5,34.5 Z"/></g>
<g><path style="opacity:1" fill="#d2dd98" d="M 110.5,34.5 C 108.784,45.6182 108.117,56.9515 108.5,68.5C 107.833,62.1667 107.167,55.8333 106.5,49.5C 107.028,40.6651 108.528,31.9985 111,23.5C 111.062,27.1483 110.895,30.815 110.5,34.5 Z"/></g>
<g><path style="opacity:1" fill="#f3f8d5" d="M 127.5,33.5 C 134.282,39.2965 139.615,46.2965 143.5,54.5C 140.833,51.5 138.167,48.5 135.5,45.5C 133.251,41.2458 130.585,37.2458 127.5,33.5 Z"/></g>
<g><path style="opacity:1" fill="#f5fad8" d="M 81.5,45.5 C 77.2649,53.2994 73.5982,61.2994 70.5,69.5C 70.3975,66.7814 70.7308,64.1147 71.5,61.5C 74.1509,57.6717 76.1509,53.505 77.5,49C 78.4098,47.251 79.7431,46.0843 81.5,45.5 Z"/></g>
<g><path style="opacity:1" fill="#7f8f2c" d="M 110.5,34.5 C 111.632,51.0893 111.632,67.7559 110.5,84.5C 109.335,79.3673 108.668,74.034 108.5,68.5C 108.117,56.9515 108.784,45.6182 110.5,34.5 Z"/></g>
<g><path style="opacity:1" fill="#e0eba3" d="M 95.5,63.5 C 94.8333,63.5 94.5,63.8333 94.5,64.5C 93.6515,62.1124 92.6515,59.7791 91.5,57.5C 91.335,54.1501 91.5017,50.8168 92,47.5C 92.8555,52.9198 94.0222,58.2531 95.5,63.5 Z"/></g>
<g><path style="opacity:1" fill="#879441" d="M 81.5,45.5 C 81.8333,45.5 82.1667,45.5 82.5,45.5C 82.3357,48.8174 81.3357,51.8174 79.5,54.5C 76.6202,57.9359 75.1202,61.9359 75,66.5C 72.8863,69.0934 71.053,71.7601 69.5,74.5C 70.038,72.8828 70.3713,71.2161 70.5,69.5C 73.5982,61.2994 77.2649,53.2994 81.5,45.5 Z"/></g>
<g><path style="opacity:1" fill="#f5f9dc" d="M 143.5,54.5 C 144.5,54.5 145.5,54.5 146.5,54.5C 146.351,55.552 146.517,56.552 147,57.5C 151.802,62.8183 155.636,68.8183 158.5,75.5C 153.119,68.7837 148.119,61.7837 143.5,54.5 Z"/></g>
<g><path style="opacity:1" fill="#f4f7da" d="M 106.5,49.5 C 107.167,55.8333 107.833,62.1667 108.5,68.5C 108.668,74.034 109.335,79.3673 110.5,84.5C 111.593,96.207 114.26,107.54 118.5,118.5C 117.115,117.426 115.949,116.093 115,114.5C 113.822,110.209 112.822,105.876 112,101.5C 110.897,106.559 110.397,111.559 110.5,116.5C 111.628,117.262 112.795,117.929 114,118.5C 116.093,127.286 119.26,135.619 123.5,143.5C 120.068,139.636 117.401,135.302 115.5,130.5C 114.863,124.547 112.197,119.881 107.5,116.5C 101.228,111.567 95.2282,106.233 89.5,100.5C 88.8333,98.8333 88.1667,97.1667 87.5,95.5C 88.1667,95.5 88.8333,95.5 89.5,95.5C 94.894,102.391 101.394,108.058 109,112.5C 107.609,103.59 106.442,94.5903 105.5,85.5C 106.117,85.6107 106.617,85.944 107,86.5C 107.333,88.5 107.667,90.5 108,92.5C 108.667,87.5 108.667,82.5 108,77.5C 107.667,77.1667 107.333,76.8333 107,76.5C 106.768,77.7375 106.268,78.7375 105.5,79.5C 105.5,74.1667 105.5,68.8333 105.5,63.5C 105.437,58.7971 105.771,54.1304 106.5,49.5 Z"/></g>
<g><path style="opacity:1" fill="#b0ba7a" d="M 105.5,63.5 C 105.5,68.8333 105.5,74.1667 105.5,79.5C 104.508,79.6716 103.842,79.3382 103.5,78.5C 104.167,73.5 104.833,68.5 105.5,63.5 Z"/></g>
<g><path style="opacity:1" fill="#f2f7d3" d="M 95.5,63.5 C 98.1298,68.4782 100.796,73.4782 103.5,78.5C 103.842,79.3382 104.508,79.6716 105.5,79.5C 105.5,81.1667 105.5,82.8333 105.5,84.5C 99.773,79.0523 96.1063,72.3857 94.5,64.5C 94.5,63.8333 94.8333,63.5 95.5,63.5 Z"/></g>
<g><path style="opacity:1" fill="#7f931a" d="M 79.5,54.5 C 80.5,54.5 81.5,54.5 82.5,54.5C 82.3367,56.8568 82.5034,59.1902 83,61.5C 84.5523,61.0111 85.719,61.6777 86.5,63.5C 87.3323,68.2113 88.8323,68.5446 91,64.5C 91.3333,65.1667 91.6667,65.8333 92,66.5C 92.5747,70.9738 92.0747,75.3071 90.5,79.5C 91.5,79.5 92.5,79.5 93.5,79.5C 93.5,77.8333 93.5,76.1667 93.5,74.5C 95.8489,74.4583 97.1822,75.6249 97.5,78C 97.0946,78.9454 96.428,79.6121 95.5,80C 95.579,82.305 95.7457,84.805 96,87.5C 97.0195,86.3128 98.1861,85.3128 99.5,84.5C 102.016,87.8588 103.682,91.5254 104.5,95.5C 102.516,95.6168 100.85,94.9501 99.5,93.5C 98.5,94.8333 97.5,96.1667 96.5,97.5C 93.4802,94.811 90.4802,92.1444 87.5,89.5C 87.2148,87.712 87.5481,86.0453 88.5,84.5C 89.8498,85.9501 91.5165,86.6168 93.5,86.5C 93.5,85.5 93.5,84.5 93.5,83.5C 92.1779,83.67 91.0113,83.3366 90,82.5C 88.6352,79.3143 87.1352,76.3143 85.5,73.5C 84.2801,73.8869 83.6135,74.7202 83.5,76C 84.1868,77.1618 84.3534,78.3284 84,79.5C 83.3333,80.8333 82.6667,80.8333 82,79.5C 81.6667,80.1667 81.3333,80.8333 81,81.5C 81.1554,79.1893 81.1554,76.856 81,74.5C 79.3451,74.1976 78.0118,72.8642 77,70.5C 76.3333,73.1667 76.3333,75.8333 77,78.5C 78.1937,80.6234 78.8603,82.9568 79,85.5C 81.6071,87.9686 81.7738,90.8019 79.5,94C 82.8439,98.9008 85.5105,104.067 87.5,109.5C 84.9752,110.64 82.3085,111.307 79.5,111.5C 79.5,110.5 79.5,109.5 79.5,108.5C 80.5,108.5 81.5,108.5 82.5,108.5C 83.2436,105.05 81.9103,103.384 78.5,103.5C 77.8734,108.141 77.5401,112.807 77.5,117.5C 78.8306,121.116 80.164,124.782 81.5,128.5C 83.5771,130.082 85.9104,131.082 88.5,131.5C 89.2018,134.31 89.2018,136.976 88.5,139.5C 90.8442,140.337 92.8442,141.671 94.5,143.5C 95.1667,142.833 95.8333,142.167 96.5,141.5C 98.4496,142.372 100.45,143.039 102.5,143.5C 102.452,146.292 103.785,148.125 106.5,149C 102.796,150.451 99.1297,150.951 95.5,150.5C 100.446,151.972 104.779,154.472 108.5,158C 108.167,158.333 107.833,158.667 107.5,159C 105.82,159.034 104.32,159.201 103,159.5C 100.197,156.898 97.364,156.898 94.5,159.5C 94.1638,156.577 92.1638,155.244 88.5,155.5C 88.2224,152.71 88.8891,150.21 90.5,148C 90.1667,147.5 89.8333,147 89.5,146.5C 87.4557,147.98 86.1224,147.48 85.5,145C 88.2968,143.454 88.1301,142.288 85,141.5C 82.6739,143.449 80.1739,143.782 77.5,142.5C 78.386,139.268 79.7193,136.268 81.5,133.5C 80.011,133.467 78.6776,132.967 77.5,132C 78.6034,130.32 78.2701,128.82 76.5,127.5C 75.8333,128.833 75.1667,130.167 74.5,131.5C 73.8165,131.137 73.1499,130.804 72.5,130.5C 72.105,125.917 70.9384,121.584 69,117.5C 68.577,103.495 68.7437,89.4952 69.5,75.5C 69.5,75.1667 69.5,74.8333 69.5,74.5C 71.053,71.7601 72.8863,69.0934 75,66.5C 75.1202,61.9359 76.6202,57.9359 79.5,54.5 Z"/></g>
<g><path style="opacity:1" fill="#fafaf8" d="M 105.5,85.5 C 105.5,85.1667 105.5,84.8333 105.5,84.5C 105.5,82.8333 105.5,81.1667 105.5,79.5C 106.268,78.7375 106.768,77.7375 107,76.5C 107.333,76.8333 107.667,77.1667 108,77.5C 108.667,82.5 108.667,87.5 108,92.5C 107.667,90.5 107.333,88.5 107,86.5C 106.617,85.944 106.117,85.6107 105.5,85.5 Z"/></g>
<g><path style="opacity:1" fill="#f0f5d3" d="M 158.5,75.5 C 159.496,75.4142 160.329,75.7476 161,76.5C 161.653,79.8066 163.319,82.4733 166,84.5C 167.674,88.0207 168.84,91.6873 169.5,95.5C 168.833,94.8333 168.167,94.1667 167.5,93.5C 165.027,87.2211 162.027,81.2211 158.5,75.5 Z"/></g>
<g><path style="opacity:1" fill="#e4efa7" d="M 82.5,86.5 C 82.8333,86.5 83.1667,86.5 83.5,86.5C 85.2519,89.672 87.2519,92.672 89.5,95.5C 88.8333,95.5 88.1667,95.5 87.5,95.5C 85.0764,92.9922 83.4097,89.9922 82.5,86.5 Z"/></g>
<g><path style="opacity:1" fill="#808f36" d="M 69.5,75.5 C 68.7437,89.4952 68.577,103.495 69,117.5C 70.9384,121.584 72.105,125.917 72.5,130.5C 72.886,132.937 74.0527,134.937 76,136.5C 76.4966,138.81 76.6633,141.143 76.5,143.5C 75.6873,141.739 74.6873,140.072 73.5,138.5C 72.5376,134.605 71.2043,130.939 69.5,127.5C 65.541,110.032 65.541,92.6985 69.5,75.5 Z"/></g>
<g><path style="opacity:1" fill="#82922d" d="M 91.5,57.5 C 92.6515,59.7791 93.6515,62.1124 94.5,64.5C 96.1063,72.3857 99.773,79.0523 105.5,84.5C 105.5,84.8333 105.5,85.1667 105.5,85.5C 106.442,94.5903 107.609,103.59 109,112.5C 101.394,108.058 94.894,102.391 89.5,95.5C 87.2519,92.672 85.2519,89.672 83.5,86.5C 83.4346,86.0618 83.6012,85.7284 84,85.5C 84.9487,87.0931 86.1154,88.4264 87.5,89.5C 90.4802,92.1444 93.4802,94.811 96.5,97.5C 97.5,96.1667 98.5,94.8333 99.5,93.5C 100.85,94.9501 102.516,95.6168 104.5,95.5C 103.682,91.5254 102.016,87.8588 99.5,84.5C 98.1861,85.3128 97.0195,86.3128 96,87.5C 95.7457,84.805 95.579,82.305 95.5,80C 96.428,79.6121 97.0946,78.9454 97.5,78C 97.1822,75.6249 95.8489,74.4583 93.5,74.5C 93.5,76.1667 93.5,77.8333 93.5,79.5C 92.5,79.5 91.5,79.5 90.5,79.5C 92.0747,75.3071 92.5747,70.9738 92,66.5C 91.6667,65.8333 91.3333,65.1667 91,64.5C 88.8323,68.5446 87.3323,68.2113 86.5,63.5C 88.1667,63.5 89.8333,63.5 91.5,63.5C 91.5,61.5 91.5,59.5 91.5,57.5 Z"/></g>
<g><path style="opacity:1" fill="#fafce3" d="M 169.5,95.5 C 170.859,96.0065 171.859,97.0065 172.5,98.5C 174.627,108.247 174.96,117.914 173.5,127.5C 174.364,116.505 173.03,105.838 169.5,95.5 Z"/></g>
<g><path style="opacity:1" fill="#f3f7d9" d="M 70.5,69.5 C 70.3713,71.2161 70.038,72.8828 69.5,74.5C 69.5,74.8333 69.5,75.1667 69.5,75.5C 65.541,92.6985 65.541,110.032 69.5,127.5C 67.9277,125.056 66.4277,122.39 65,119.5C 63,108.833 63,98.1667 65,87.5C 66.1473,81.2384 67.9807,75.2384 70.5,69.5 Z"/></g>
<g><path style="opacity:1" fill="#86953a" d="M 167.5,93.5 C 168.167,94.1667 168.833,94.8333 169.5,95.5C 173.03,105.838 174.364,116.505 173.5,127.5C 171.486,135.539 168.486,143.206 164.5,150.5C 164.768,147.881 164.435,145.381 163.5,143C 166.106,141.062 167.939,138.562 169,135.5C 171.156,127.731 171.989,119.731 171.5,111.5C 170.5,111.5 169.5,111.5 168.5,111.5C 168.942,109.028 169.275,106.528 169.5,104C 168.584,100.568 167.917,97.0678 167.5,93.5 Z"/></g>
<g><path style="opacity:1" fill="#82903b" d="M 89.5,100.5 C 95.2282,106.233 101.228,111.567 107.5,116.5C 103.938,116.035 100.605,114.868 97.5,113C 98.8333,112 98.8333,111 97.5,110C 95.1667,109 92.8333,108 90.5,107C 91.0219,106.439 91.3552,105.772 91.5,105C 90.5862,103.594 89.9195,102.094 89.5,100.5 Z"/></g>
<g><path style="opacity:1" fill="#809220" d="M 87.5,89.5 C 86.1154,88.4264 84.9487,87.0931 84,85.5C 83.6012,85.7284 83.4346,86.0618 83.5,86.5C 83.1667,86.5 82.8333,86.5 82.5,86.5C 83.4097,89.9922 85.0764,92.9922 87.5,95.5C 88.1667,97.1667 88.8333,98.8333 89.5,100.5C 89.9195,102.094 90.5862,103.594 91.5,105C 91.3552,105.772 91.0219,106.439 90.5,107C 92.8333,108 95.1667,109 97.5,110C 98.8333,111 98.8333,112 97.5,113C 100.605,114.868 103.938,116.035 107.5,116.5C 112.197,119.881 114.863,124.547 115.5,130.5C 115.672,132.492 115.005,134.158 113.5,135.5C 114.817,135.313 116.15,135.98 117.5,137.5C 118.706,139.794 119.706,142.127 120.5,144.5C 115.839,142.078 110.839,140.411 105.5,139.5C 102.648,137.909 99.6484,136.576 96.5,135.5C 96.1667,134.833 95.8333,134.167 95.5,133.5C 93.0539,129.17 89.5539,125.836 85,123.5C 84.0823,119.486 81.5823,117.486 77.5,117.5C 77.5401,112.807 77.8734,108.141 78.5,103.5C 81.9103,103.384 83.2436,105.05 82.5,108.5C 81.5,108.5 80.5,108.5 79.5,108.5C 79.5,109.5 79.5,110.5 79.5,111.5C 82.3085,111.307 84.9752,110.64 87.5,109.5C 85.5105,104.067 82.8439,98.9008 79.5,94C 81.7738,90.8019 81.6071,87.9686 79,85.5C 78.8603,82.9568 78.1937,80.6234 77,78.5C 76.3333,75.8333 76.3333,73.1667 77,70.5C 78.0118,72.8642 79.3451,74.1976 81,74.5C 81.1554,76.856 81.1554,79.1893 81,81.5C 81.3333,80.8333 81.6667,80.1667 82,79.5C 82.6667,80.8333 83.3333,80.8333 84,79.5C 84.3534,78.3284 84.1868,77.1618 83.5,76C 83.6135,74.7202 84.2801,73.8869 85.5,73.5C 87.1352,76.3143 88.6352,79.3143 90,82.5C 91.0113,83.3366 92.1779,83.67 93.5,83.5C 93.5,84.5 93.5,85.5 93.5,86.5C 91.5165,86.6168 89.8498,85.9501 88.5,84.5C 87.5481,86.0453 87.2148,87.712 87.5,89.5 Z"/></g>
<g><path style="opacity:1" fill="#daeb80" d="M 82.5,86.5 C 80.7274,85.6857 80.2274,84.3524 81,82.5C 81.7914,83.745 82.2914,85.0783 82.5,86.5 Z"/></g>
<g><path style="opacity:1" fill="#fcfcf9" d="M 118.5,118.5 C 118.072,123.537 119.738,127.537 123.5,130.5C 123.883,134.319 124.883,137.986 126.5,141.5C 125.282,142.803 125.615,143.803 127.5,144.5C 127.167,144.833 126.833,145.167 126.5,145.5C 125.482,144.807 124.482,144.141 123.5,143.5C 119.26,135.619 116.093,127.286 114,118.5C 112.795,117.929 111.628,117.262 110.5,116.5C 110.397,111.559 110.897,106.559 112,101.5C 112.822,105.876 113.822,110.209 115,114.5C 115.949,116.093 117.115,117.426 118.5,118.5 Z"/></g>
<g><path style="opacity:1" fill="#f1f5d0" d="M 118.5,118.5 C 119.313,120.261 120.313,121.928 121.5,123.5C 121.878,125.921 122.545,128.254 123.5,130.5C 119.738,127.537 118.072,123.537 118.5,118.5 Z"/></g>
<g><path style="opacity:1" fill="#839334" d="M 77.5,117.5 C 81.5823,117.486 84.0823,119.486 85,123.5C 89.5539,125.836 93.0539,129.17 95.5,133.5C 89.9769,130.49 85.1436,126.49 81,121.5C 80.3333,122.167 80.3333,122.833 81,123.5C 83.705,126.036 86.205,128.703 88.5,131.5C 85.9104,131.082 83.5771,130.082 81.5,128.5C 80.164,124.782 78.8306,121.116 77.5,117.5 Z"/></g>
<g><path style="opacity:1" fill="#edf6b6" d="M 95.5,133.5 C 95.8333,134.167 96.1667,134.833 96.5,135.5C 95.6618,135.842 95.3284,136.508 95.5,137.5C 93.1667,135.5 90.8333,133.5 88.5,131.5C 86.205,128.703 83.705,126.036 81,123.5C 80.3333,122.833 80.3333,122.167 81,121.5C 85.1436,126.49 89.9769,130.49 95.5,133.5 Z"/></g>
<g><path style="opacity:1" fill="#e5ebc1" d="M 69.5,127.5 C 71.2043,130.939 72.5376,134.605 73.5,138.5C 71.0103,135.374 69.677,131.708 69.5,127.5 Z"/></g>
<g><path style="opacity:1" fill="#80902e" d="M 121.5,123.5 C 123.828,124.736 124.994,126.736 125,129.5C 128.813,133.156 131.647,137.489 133.5,142.5C 134.946,141.829 135.612,140.662 135.5,139C 134.294,136.81 134.46,134.643 136,132.5C 136.333,132.833 136.667,133.167 137,133.5C 137.238,137.222 137.738,140.889 138.5,144.5C 137.624,145.251 136.624,145.751 135.5,146C 138.802,149.456 141.469,153.289 143.5,157.5C 135.614,149.391 128.947,140.391 123.5,130.5C 122.545,128.254 121.878,125.921 121.5,123.5 Z"/></g>
<g><path style="opacity:1" fill="#86943d" d="M 115.5,130.5 C 117.401,135.302 120.068,139.636 123.5,143.5C 123.539,144.583 123.873,145.583 124.5,146.5C 123.675,147.386 122.675,147.719 121.5,147.5C 115.919,145.376 110.586,142.71 105.5,139.5C 110.839,140.411 115.839,142.078 120.5,144.5C 119.706,142.127 118.706,139.794 117.5,137.5C 116.15,135.98 114.817,135.313 113.5,135.5C 115.005,134.158 115.672,132.492 115.5,130.5 Z"/></g>
<g><path style="opacity:1" fill="#81912e" d="M 88.5,131.5 C 90.8333,133.5 93.1667,135.5 95.5,137.5C 97.8333,139.5 100.167,141.5 102.5,143.5C 100.45,143.039 98.4496,142.372 96.5,141.5C 95.8333,142.167 95.1667,142.833 94.5,143.5C 92.8442,141.671 90.8442,140.337 88.5,139.5C 89.2018,136.976 89.2018,134.31 88.5,131.5 Z"/></g>
<g><path style="opacity:1" fill="#f8faea" d="M 123.5,130.5 C 128.947,140.391 135.614,149.391 143.5,157.5C 145.782,160.122 148.115,162.788 150.5,165.5C 151.581,167.134 152.915,168.467 154.5,169.5C 154.833,169.5 155.167,169.5 155.5,169.5C 155.542,171.849 154.375,173.182 152,173.5C 150.3,172.073 148.467,171.24 146.5,171C 149.2,172.857 150.866,175.357 151.5,178.5C 148.767,175.569 145.434,173.569 141.5,172.5C 142.167,171.833 142.833,171.167 143.5,170.5C 143.649,169.448 143.483,168.448 143,167.5C 138.403,163.182 133.903,158.682 129.5,154C 126.92,152.856 124.253,152.022 121.5,151.5C 120.426,150.115 119.093,148.949 117.5,148C 118.793,147.51 120.127,147.343 121.5,147.5C 122.675,147.719 123.675,147.386 124.5,146.5C 123.873,145.583 123.539,144.583 123.5,143.5C 124.482,144.141 125.482,144.807 126.5,145.5C 126.833,145.167 127.167,144.833 127.5,144.5C 125.615,143.803 125.282,142.803 126.5,141.5C 124.883,137.986 123.883,134.319 123.5,130.5 Z"/></g>
<g><path style="opacity:1" fill="#f1f5d3" d="M 96.5,135.5 C 99.6484,136.576 102.648,137.909 105.5,139.5C 110.586,142.71 115.919,145.376 121.5,147.5C 120.127,147.343 118.793,147.51 117.5,148C 119.093,148.949 120.426,150.115 121.5,151.5C 114.807,149.605 108.473,146.938 102.5,143.5C 100.167,141.5 97.8333,139.5 95.5,137.5C 95.3284,136.508 95.6618,135.842 96.5,135.5 Z"/></g>
<g><path style="opacity:1" fill="#f1f6d1" d="M 173.5,127.5 C 173.665,131.182 173.499,134.848 173,138.5C 170.348,143.754 167.682,149.087 165,154.5C 163.25,156.424 161.417,158.091 159.5,159.5C 161.408,156.688 163.075,153.688 164.5,150.5C 168.486,143.206 171.486,135.539 173.5,127.5 Z"/></g>
<g><path style="opacity:1" fill="#f3f7d9" d="M 73.5,138.5 C 74.6873,140.072 75.6873,141.739 76.5,143.5C 77.2632,145.368 78.2632,147.035 79.5,148.5C 79.5,148.833 79.5,149.167 79.5,149.5C 73.9668,148.01 71.9668,144.343 73.5,138.5 Z"/></g>
<g><path style="opacity:1" fill="#839040" d="M 79.5,149.5 C 79.5,149.167 79.5,148.833 79.5,148.5C 80.675,148.281 81.675,148.614 82.5,149.5C 83.9215,152.922 86.2549,155.255 89.5,156.5C 89.5,157.5 89.5,158.5 89.5,159.5C 88.8333,159.5 88.1667,159.5 87.5,159.5C 85.1829,155.854 82.5162,152.52 79.5,149.5 Z"/></g>
<g><path style="opacity:1" fill="#809221" d="M 102.5,143.5 C 108.473,146.938 114.807,149.605 121.5,151.5C 124.253,152.022 126.92,152.856 129.5,154C 133.903,158.682 138.403,163.182 143,167.5C 143.483,168.448 143.649,169.448 143.5,170.5C 137.005,172.531 130.339,173.531 123.5,173.5C 119.203,173.722 115.203,173.055 111.5,171.5C 110.652,169.907 109.319,168.74 107.5,168C 103.811,167.148 100.144,166.315 96.5,165.5C 93.5526,164.219 91.2193,162.219 89.5,159.5C 89.5,158.5 89.5,157.5 89.5,156.5C 86.2549,155.255 83.9215,152.922 82.5,149.5C 81.675,148.614 80.675,148.281 79.5,148.5C 78.2632,147.035 77.2632,145.368 76.5,143.5C 76.6633,141.143 76.4966,138.81 76,136.5C 74.0527,134.937 72.886,132.937 72.5,130.5C 73.1499,130.804 73.8165,131.137 74.5,131.5C 75.1667,130.167 75.8333,128.833 76.5,127.5C 78.2701,128.82 78.6034,130.32 77.5,132C 78.6776,132.967 80.011,133.467 81.5,133.5C 79.7193,136.268 78.386,139.268 77.5,142.5C 80.1739,143.782 82.6739,143.449 85,141.5C 88.1301,142.288 88.2968,143.454 85.5,145C 86.1224,147.48 87.4557,147.98 89.5,146.5C 89.8333,147 90.1667,147.5 90.5,148C 88.8891,150.21 88.2224,152.71 88.5,155.5C 92.1638,155.244 94.1638,156.577 94.5,159.5C 97.364,156.898 100.197,156.898 103,159.5C 104.32,159.201 105.82,159.034 107.5,159C 107.833,158.667 108.167,158.333 108.5,158C 104.779,154.472 100.446,151.972 95.5,150.5C 99.1297,150.951 102.796,150.451 106.5,149C 103.785,148.125 102.452,146.292 102.5,143.5 Z"/></g>
<g><path style="opacity:1" fill="#f7fbde" d="M 79.5,149.5 C 82.5162,152.52 85.1829,155.854 87.5,159.5C 82.9773,157.645 80.3107,154.311 79.5,149.5 Z"/></g>
<g><path style="opacity:1" fill="#f3f7db" d="M 159.5,159.5 C 159.577,162.509 158.244,164.676 155.5,166C 159.218,168.369 162.885,170.703 166.5,173C 167.252,173.671 167.586,174.504 167.5,175.5C 163.027,173.095 158.694,170.429 154.5,167.5C 153.537,167.97 153.537,168.637 154.5,169.5C 152.915,168.467 151.581,167.134 150.5,165.5C 153.5,163.5 156.5,161.5 159.5,159.5 Z"/></g>
<g><path style="opacity:1" fill="#829138" d="M 96.5,165.5 C 100.144,166.315 103.811,167.148 107.5,168C 109.319,168.74 110.652,169.907 111.5,171.5C 108.426,171.127 105.426,170.461 102.5,169.5C 100.5,168.167 98.5,166.833 96.5,165.5 Z"/></g>
<g><path style="opacity:1" fill="#f1f6d2" d="M 102.5,169.5 C 105.426,170.461 108.426,171.127 111.5,171.5C 115.203,173.055 119.203,173.722 123.5,173.5C 130.339,173.531 137.005,172.531 143.5,170.5C 142.833,171.167 142.167,171.833 141.5,172.5C 139.851,173.473 138.184,174.473 136.5,175.5C 128.275,175.049 119.942,174.549 111.5,174C 108.017,173.235 105.017,171.735 102.5,169.5 Z"/></g>
<g><path style="opacity:1" fill="#f0f5d4" d="M 170.5,176.5 C 173.382,177.811 176.382,178.978 179.5,180C 181.635,180.876 182.969,182.376 183.5,184.5C 181.716,184.107 180.05,183.441 178.5,182.5C 175.692,180.677 173.025,178.677 170.5,176.5 Z"/></g>
<g><path style="opacity:1" fill="#f6f8e1" d="M 155.5,169.5 C 162.885,175.552 170.552,181.219 178.5,186.5C 179.167,187.5 179.833,188.5 180.5,189.5C 178.446,188.391 176.279,187.391 174,186.5C 173.5,186.833 173,187.167 172.5,187.5C 173.524,188.852 174.524,190.185 175.5,191.5C 169.687,187.756 164.02,183.756 158.5,179.5C 150.061,172.885 149.727,173.218 157.5,180.5C 159.167,181.5 160.5,182.833 161.5,184.5C 157.495,183.502 154.161,181.502 151.5,178.5C 150.866,175.357 149.2,172.857 146.5,171C 148.467,171.24 150.3,172.073 152,173.5C 154.375,173.182 155.542,171.849 155.5,169.5 Z"/></g>
<g><path style="opacity:1" fill="#a3a985" d="M 158.5,179.5 C 157.833,179.5 157.5,179.833 157.5,180.5C 149.727,173.218 150.061,172.885 158.5,179.5 Z"/></g>
<g><path style="opacity:1" fill="#88944c" d="M 167.5,175.5 C 168.391,176.11 169.391,176.443 170.5,176.5C 173.025,178.677 175.692,180.677 178.5,182.5C 177.646,183.632 177.646,184.965 178.5,186.5C 170.552,181.219 162.885,175.552 155.5,169.5C 155.167,169.5 154.833,169.5 154.5,169.5C 153.537,168.637 153.537,167.97 154.5,167.5C 158.694,170.429 163.027,173.095 167.5,175.5 Z"/></g>
<g><path style="opacity:1" fill="#f6fad7" d="M 161.5,184.5 C 167.489,189.157 173.156,194.157 178.5,199.5C 175.074,197.924 171.74,196.091 168.5,194C 165.924,190.937 163.591,187.771 161.5,184.5 Z"/></g>
<g><path style="opacity:1" fill="#838f43" d="M 157.5,180.5 C 157.5,179.833 157.833,179.5 158.5,179.5C 164.02,183.756 169.687,187.756 175.5,191.5C 178.718,194.555 181.384,198.055 183.5,202C 182.423,202.47 181.423,202.303 180.5,201.5C 180.167,200.5 179.5,199.833 178.5,199.5C 173.156,194.157 167.489,189.157 161.5,184.5C 160.5,182.833 159.167,181.5 157.5,180.5 Z"/></g>
<g><path style="opacity:1" fill="#809030" d="M 178.5,182.5 C 180.05,183.441 181.716,184.107 183.5,184.5C 187.24,186.794 190.74,189.46 194,192.5C 194.944,197.938 192.778,201.605 187.5,203.5C 187.261,197.688 184.928,193.022 180.5,189.5C 179.833,188.5 179.167,187.5 178.5,186.5C 177.646,184.965 177.646,183.632 178.5,182.5 Z"/></g>
<g><path style="opacity:1" fill="#f8faea" d="M 180.5,201.5 C 181.423,202.303 182.423,202.47 183.5,202C 181.384,198.055 178.718,194.555 175.5,191.5C 174.524,190.185 173.524,188.852 172.5,187.5C 173,187.167 173.5,186.833 174,186.5C 176.279,187.391 178.446,188.391 180.5,189.5C 184.928,193.022 187.261,197.688 187.5,203.5C 192.778,201.605 194.944,197.938 194,192.5C 190.74,189.46 187.24,186.794 183.5,184.5C 185.262,184.357 186.929,184.691 188.5,185.5C 189.167,184.167 189.833,182.833 190.5,181.5C 191.585,184.383 193.585,186.383 196.5,187.5C 197.281,188.729 197.781,190.062 198,191.5C 198.333,190.833 198.667,190.167 199,189.5C 200.709,193.122 200.709,196.789 199,200.5C 197.94,200.746 196.773,200.746 195.5,200.5C 194.139,202.028 192.972,203.695 192,205.5C 190.455,204.179 189.289,204.512 188.5,206.5C 183.823,207.575 182.823,207.575 185.5,206.5C 186.112,202.124 184.946,201.457 182,204.5C 180.961,203.756 180.461,202.756 180.5,201.5 Z"/></g>
</svg>
